# xmcd
#
# Track frame offsets:
#	150
#	1642
#	12862
#	16550
#	39990
#	55897
#	77542
#	96597
#	115362
#	131345
#	147612
#	165607
#
# Disc length: 2434 seconds
# Revision: 7
# Processed by: cddbd v1.5.2PL0 Copyright (c) Steve Scherf et al.
# Submitted via: dBpowerAMP V12.0
#
DISCID=8909800c
DTITLE=B.B. King - Best of B.B. King [MEGS2 52017], CD3
DYEAR=1967
DGENRE=Blues
TTITLE0=[Introduction] [*]
TTITLE1=Waitin' on You
TTITLE2=[Introduction] [*]
TTITLE3=Gamblers' Blues
TTITLE4=Tired of Your Jive
TTITLE5=Night Life
TTITLE6=Buzz Me
TTITLE7=Don't Answer the Door
TTITLE8=Blind Love
TTITLE9=I Know What You're Puttin' Down
TTITLE10=Baby Get Lost
TTITLE11=Gonna Keep on Loving You
EXTD=
EXTT0=
EXTT1=
EXTT2=
EXTT3=
EXTT4=
EXTT5=
EXTT6=
EXTT7=
EXTT8=
EXTT9=
EXTT10=
EXTT11=
PLAYORDER=
